<?xml version="1.0" standalone="no"?>
<!DOCTYPE svg PUBLIC "-//W3C//DTD SVG 20010904//EN"
 "http://www.w3.org/TR/2001/REC-SVG-20010904/DTD/svg10.dtd">
<svg version="1.0" xmlns="http://www.w3.org/2000/svg"
 width="86.000000pt" height="104.000000pt" viewBox="0 0 86.000000 104.000000"
 preserveAspectRatio="xMidYMid meet">

<g transform="translate(0.000000,104.000000) scale(0.100000,-0.100000)"
fill="#000000" stroke="none">
<path d="M171 887 c-85 -30 -101 -137 -40 -267 l34 -72 -35 -71 c-30 -61 -35
-80 -35 -143 0 -63 3 -76 24 -98 32 -34 83 -50 136 -41 l44 6 -20 47 c-21 49
-49 153 -49 185 0 14 21 -1 76 -52 78 -73 158 -127 231 -156 49 -19 48 -28 -9
-85 -25 -25 -27 -29 -8 -17 14 9 34 30 45 46 19 29 22 30 75 25 64 -6 117 15
138 56 24 47 11 148 -30 230 l-36 73 25 56 c35 78 41 166 13 209 -11 18 -36
40 -55 48 -34 14 -87 19 -97 9 -2 -3 6 -35 18 -72 12 -38 26 -90 29 -118 l7
-50 -63 61 c-91 86 -137 119 -220 158 -85 40 -150 50 -198 33z"/>
</g>
</svg>
